<svg width="22" height="22" viewBox="0 0 22 22" fill="none" xmlns="http://www.w3.org/2000/svg">
<g id="elements">
<rect id="Rectangle 17837" x="3" y="1" width="17.5" height="20" rx="4" fill="#6B1514" stroke="#6B1514" stroke-width="1.5"/>
<g id="Vector">
<path d="M9.59003 12.7408C8.96125 13.162 7.31261 14.0221 8.31674 15.0983C8.80725 15.624 9.35355 16 10.0404 16H13.9596C14.6464 16 15.1928 15.624 15.6833 15.0983C16.6874 14.0221 15.0388 13.162 14.41 12.7408C12.9355 11.7531 11.0645 11.7531 9.59003 12.7408Z" stroke="white" stroke-width="1.5"/>
<path d="M14 8C14 9.10457 13.1046 10 12 10C10.8954 10 10 9.10457 10 8C10 6.89543 10.8954 6 12 6C13.1046 6 14 6.89543 14 8Z" stroke="white" stroke-width="1.5"/>
</g>
<path id="Vector_2" d="M4 5L1.5 5M4 11L1.5 11M4 17H1.5" stroke="black" stroke-width="1.5" stroke-linecap="round" stroke-linejoin="round"/>
</g>
</svg>
