<svg width="20" height="22" viewBox="0 0 20 22" fill="none" xmlns="http://www.w3.org/2000/svg">
<g id="elements">
<path id="Rectangle 2175" d="M10.5294 1C14.5225 1 16.519 1 17.7595 2.17157C19 3.34315 19 5.22876 19 9V13C19 16.7712 19 18.6569 17.7595 19.8284C16.519 21 14.5225 21 10.5294 21H9.47059C5.47751 21 3.48098 21 2.24049 19.8284C1 18.6569 1 16.7712 1 13L1 9C1 5.22876 1 3.34315 2.24049 2.17157C3.48098 1 5.47752 1 9.47059 1L10.5294 1Z" fill="#6B1514" stroke="#6B1514" stroke-width="1.5" stroke-linecap="round"/>
<path id="Vector 4435" d="M6 6H14" stroke="white" stroke-width="1.5" stroke-linecap="round"/>
<path id="Vector 4436" d="M6 11H14" stroke="white" stroke-width="1.5" stroke-linecap="round"/>
<path id="Vector 4438" d="M6 16L10 16" stroke="white" stroke-width="1.5" stroke-linecap="round"/>
</g>
</svg>
