<svg width="19" height="15" viewBox="0 0 19 15" fill="none" xmlns="http://www.w3.org/2000/svg">
<g id="Eye">
<path id="Vector" d="M8.275 1.90733C8.6263 1.86997 8.97968 1.85135 9.33333 1.85156C13.22 1.85156 16.3333 4.06913 17.6667 7.19879C17.3439 7.96007 16.9078 8.67676 16.3708 9.32851M4.76667 3.01191C3.06667 3.96295 1.75 5.43649 1 7.19879C2.33333 10.3284 5.44667 12.546 9.33333 12.546C10.9434 12.5538 12.5243 12.1518 13.9 11.3849M7.56667 5.57934C7.3345 5.79216 7.15034 6.04481 7.02469 6.32288C6.89904 6.60094 6.83437 6.89896 6.83437 7.19993C6.83437 7.5009 6.89904 7.79893 7.02469 8.07699C7.15034 8.35505 7.3345 8.6077 7.56667 8.82052C7.79883 9.03334 8.07445 9.20216 8.37779 9.31734C8.68113 9.43251 9.00625 9.49179 9.33458 9.49179C9.66292 9.49179 9.98803 9.43251 10.2914 9.31734C10.5947 9.20216 10.8703 9.03334 11.1025 8.82052" stroke="#9F9F9F" stroke-width="1.5" stroke-linecap="round" stroke-linejoin="round"/>
<path id="Vector_2" d="M2.6665 1.08594L15.9998 13.3082" stroke="#9F9F9F" stroke-width="1.5" stroke-linecap="round"/>
</g>
</svg>
