<svg width="17" height="18" viewBox="0 0 17 18" fill="none" xmlns="http://www.w3.org/2000/svg">
<path d="M6.26562 5C6.27465 3.26 6.34759 2.3176 6.92513 1.7032C7.58614 1 8.64947 1 10.7761 1H11.5281C13.6555 1 14.7189 1 15.3799 1.7032C16.0401 2.4056 16.0401 3.5376 16.0401 5.8V12.2C16.0401 14.4624 16.0401 15.5944 15.3799 16.2968C14.7181 17 13.6555 17 11.5281 17H10.7761C8.64947 17 7.58614 17 6.92513 16.2968C6.34759 15.6824 6.27465 14.74 6.26562 13" stroke="#6B1514" stroke-width="1.5" stroke-linecap="round"/>
<path d="M10.776 9.00156H1M1 9.00156L3.632 6.60156M1 9.00156L3.632 11.4016" stroke="#6B1514" stroke-width="1.5" stroke-linecap="round" stroke-linejoin="round"/>
</svg>
