<svg width="15" height="15" viewBox="0 0 15 15" fill="none" xmlns="http://www.w3.org/2000/svg">
<g id="Icon/">
<path id="Union" fill-rule="evenodd" clip-rule="evenodd" d="M1.5 6.77483C1.5 4.04715 3.71122 1.83594 6.43889 1.83594C9.16656 1.83594 11.3778 4.04715 11.3778 6.77483C11.3778 8.104 10.8527 9.31054 9.9987 10.1983C9.97353 10.2178 9.9493 10.2391 9.92621 10.2622C9.90312 10.2852 9.88185 10.3095 9.8624 10.3346C8.9746 11.1887 7.76806 11.7137 6.43889 11.7137C3.71122 11.7137 1.5 9.5025 1.5 6.77483ZM10.4307 11.8273C9.33345 12.6954 7.94669 13.2137 6.43889 13.2137C2.88279 13.2137 0 10.3309 0 6.77483C0 3.21873 2.88279 0.335938 6.43889 0.335938C9.99499 0.335938 12.8778 3.21873 12.8778 6.77483C12.8778 8.28263 12.3595 9.66939 11.4914 10.7667L14.0802 13.3555C14.3731 13.6484 14.3731 14.1233 14.0802 14.4161C13.7873 14.709 13.3124 14.709 13.0195 14.4161L10.4307 11.8273Z" fill="white"/>
</g>
</svg>
