<svg width="18" height="21" viewBox="0 0 18 21" fill="none" xmlns="http://www.w3.org/2000/svg">
<g id="Lock">
<path id="Vector" fill-rule="evenodd" clip-rule="evenodd" d="M0 10.3162C0 9.49263 0.316071 8.7028 0.87868 8.12045C1.44129 7.5381 2.20435 7.21094 3 7.21094H15C15.7956 7.21094 16.5587 7.5381 17.1213 8.12045C17.6839 8.7028 18 9.49263 18 10.3162V17.5618C18 18.3854 17.6839 19.1752 17.1213 19.7576C16.5587 20.3399 15.7956 20.6671 15 20.6671H3C2.20435 20.6671 1.44129 20.3399 0.87868 19.7576C0.316071 19.1752 0 18.3854 0 17.5618V10.3162ZM10 12.3864C10 12.1119 9.89464 11.8486 9.70711 11.6545C9.51957 11.4603 9.26522 11.3513 9 11.3513C8.73478 11.3513 8.48043 11.4603 8.29289 11.6545C8.10536 11.8486 8 12.1119 8 12.3864V15.4916C8 15.7662 8.10536 16.0294 8.29289 16.2236C8.48043 16.4177 8.73478 16.5267 9 16.5267C9.26522 16.5267 9.51957 16.4177 9.70711 16.2236C9.89464 16.0294 10 15.7662 10 15.4916V12.3864Z" fill="#A2A2A2"/>
<path id="Vector_2" d="M5 8.24561V5.14035C5 4.04226 5.42143 2.98915 6.17157 2.21268C6.92172 1.43621 7.93913 1 9 1C10.0609 1 11.0783 1.43621 11.8284 2.21268C12.5786 2.98915 13 4.04226 13 5.14035V8.24561" stroke="#A2A2A2" stroke-width="2" stroke-linecap="round" stroke-linejoin="round"/>
</g>
</svg>
