<svg width="20" height="17" viewBox="0 0 20 17" fill="none" xmlns="http://www.w3.org/2000/svg">
<path id="Vector" fill-rule="evenodd" clip-rule="evenodd" d="M3 17C2.20435 17 1.44129 16.6642 0.87868 16.0664C0.316071 15.4686 0 14.6579 0 13.8125V3.1875C0 2.34212 0.316071 1.53137 0.87868 0.933597C1.44129 0.335825 2.20435 0 3 0H17C17.7956 0 18.5587 0.335825 19.1213 0.933597C19.6839 1.53137 20 2.34212 20 3.1875V13.8125C20 14.6579 19.6839 15.4686 19.1213 16.0664C18.5587 16.6642 17.7956 17 17 17H3ZM5.625 4.48375C5.52313 4.39133 5.40483 4.3216 5.27711 4.27869C5.1494 4.23578 5.01487 4.22058 4.88151 4.23397C4.74816 4.24737 4.61869 4.28909 4.50081 4.35667C4.38292 4.42425 4.27901 4.5163 4.19525 4.62737C4.11149 4.73843 4.04959 4.86625 4.01321 5.00322C3.97684 5.14019 3.96673 5.28354 3.9835 5.42474C4.00026 5.56594 4.04356 5.70213 4.11081 5.82521C4.17806 5.94829 4.2679 6.05577 4.375 6.14125L8.125 9.32981C8.65709 9.78245 9.31838 10.0291 10 10.0291C10.6816 10.0291 11.3429 9.78245 11.875 9.32981L15.625 6.14231C15.7276 6.05511 15.813 5.94729 15.8763 5.82502C15.9396 5.70275 15.9797 5.56842 15.9942 5.4297C16.0087 5.29098 15.9973 5.15059 15.9607 5.01654C15.9241 4.88249 15.8631 4.75741 15.781 4.64844C15.6989 4.53946 15.5974 4.44874 15.4824 4.38143C15.3673 4.31413 15.2409 4.27156 15.1103 4.25617C14.9798 4.24078 14.8476 4.25286 14.7215 4.29173C14.5953 4.33059 14.4776 4.39548 14.375 4.48269L10.625 7.67019C10.4476 7.82107 10.2272 7.90327 10 7.90327C9.77279 7.90327 9.55236 7.82107 9.375 7.67019L5.625 4.48269V4.48375Z" fill="#A2A2A2"/>
</svg>
