<svg width="18" height="22" viewBox="0 0 18 22" fill="none" xmlns="http://www.w3.org/2000/svg">
<path id="Vector" d="M9 0C7.80653 0 6.66193 0.46357 5.81802 1.28873C4.97411 2.11389 4.5 3.23305 4.5 4.4C4.5 5.56695 4.97411 6.68611 5.81802 7.51127C6.66193 8.33643 7.80653 8.8 9 8.8C10.1935 8.8 11.3381 8.33643 12.182 7.51127C13.0259 6.68611 13.5 5.56695 13.5 4.4C13.5 3.23305 13.0259 2.11389 12.182 1.28873C11.3381 0.46357 10.1935 0 9 0ZM14.625 11H3.375C2.47989 11 1.62145 11.3477 0.988515 11.9665C0.355579 12.5854 0 13.4248 0 14.3C0 16.7552 1.03275 18.722 2.727 20.053C4.39425 21.362 6.63075 22 9 22C11.3692 22 13.6058 21.362 15.273 20.053C16.965 18.722 18 16.7552 18 14.3C18 13.4248 17.6444 12.5854 17.0115 11.9665C16.3786 11.3477 15.5201 11 14.625 11Z" fill="#A2A2A2"/>
</svg>
